<svg width="25" height="25" viewBox="0 0 25 25" fill="none" xmlns="http://www.w3.org/2000/svg">
<g clip-path="url(#clip0_230_30)">
<path d="M12.5001 0C9.18488 0 6.00546 1.31696 3.66125 3.66116C1.31705 6.00537 8.8828e-05 9.18479 8.8828e-05 12.5C-0.0207235 15.382 0.934684 18.1861 2.71075 20.4558C4.48682 22.7256 6.97894 24.3272 9.78134 25C9.85862 25.0175 9.93886 25.017 10.016 24.9988C10.0931 24.9806 10.165 24.945 10.2263 24.8948C10.2875 24.8445 10.3365 24.781 10.3695 24.709C10.4026 24.637 10.4187 24.5584 10.4168 24.4792V21.3542C10.4168 21.216 10.3619 21.0836 10.2642 20.9859C10.1665 20.8882 10.0341 20.8333 9.89592 20.8333H8.85426C7.55217 20.8333 6.66676 19.6042 5.88551 18.5104L5.64592 18.1771C6.01015 18.3715 6.35845 18.5945 6.68759 18.8438C7.28126 19.3759 8.02946 19.7044 8.82301 19.7812H8.97926C9.17854 19.7835 9.37607 19.7439 9.55914 19.6652C9.74221 19.5864 9.90675 19.4702 10.0422 19.324C10.1776 19.1778 10.2809 19.0048 10.3454 18.8162C10.4099 18.6277 10.4342 18.4277 10.4168 18.2292V17.8646C10.4168 17.7519 10.3802 17.6422 10.3126 17.5521C10.245 17.4619 10.1499 17.3961 10.0418 17.3646C7.14592 16.5417 5.20842 14.3854 5.20842 11.9792C5.23136 10.6785 5.76666 9.43945 6.69801 8.53125C6.77087 8.45495 6.81886 8.35833 6.8356 8.25416C6.85234 8.15 6.83705 8.0432 6.79176 7.94792C6.60526 7.52451 6.52216 7.0628 6.54933 6.60094C6.5765 6.13907 6.71315 5.69029 6.94801 5.29167C7.67843 5.5868 8.33081 6.04667 8.85426 6.63542C8.92246 6.71673 9.01387 6.77527 9.11626 6.80319C9.21865 6.83112 9.32713 6.8271 9.42717 6.79167C11.4098 6.07657 13.58 6.07657 15.5626 6.79167C15.6626 6.8271 15.7711 6.83112 15.8735 6.80319C15.9759 6.77527 16.0673 6.71673 16.1355 6.63542C16.659 6.04667 17.3113 5.5868 18.0418 5.29167C18.2766 5.69029 18.4133 6.13907 18.4404 6.60094C18.4676 7.0628 18.3845 7.52451 18.198 7.94792C18.1527 8.0432 18.1374 8.15 18.1542 8.25416C18.1709 8.35833 18.2189 8.45495 18.2918 8.53125C19.2269 9.43774 19.7661 10.677 19.7918 11.9792C19.7918 14.5 17.6355 16.7604 14.5834 17.4688C14.5058 17.4867 14.4333 17.5222 14.3715 17.5726C14.3097 17.6229 14.2603 17.6868 14.2271 17.7592C14.1939 17.8317 14.1778 17.9108 14.18 17.9904C14.1821 18.0701 14.2026 18.1482 14.2397 18.2188C14.5293 18.8733 14.6579 19.5877 14.6147 20.3021V24.4687C14.6147 24.6069 14.6695 24.7394 14.7672 24.837C14.8649 24.9347 14.9974 24.9896 15.1355 24.9896H15.2501C18.045 24.3111 20.5287 22.7084 22.2984 20.4414C24.0682 18.1744 25.0202 15.376 25.0001 12.5C25.0001 9.18479 23.6831 6.00537 21.3389 3.66116C18.9947 1.31696 15.8153 0 12.5001 0Z" fill="#303C42"/>
</g>
<defs>
<clipPath id="clip0_230_30">
<rect width="25" height="25" fill="white"/>
</clipPath>
</defs>
</svg>
