<svg width="25" height="25" viewBox="0 0 25 25" fill="none" xmlns="http://www.w3.org/2000/svg">
<g clip-path="url(#clip0_230_2)">
<path d="M12.5 5.20833C14.1841 5.20833 15.7305 5.78492 16.9649 6.74381L20.7536 3.12926C18.5508 1.18745 15.6673 0 12.5 0C7.70041 0 3.53819 2.70824 1.44354 6.67693L5.65649 10.0029C6.67705 7.20768 9.35154 5.20833 12.5 5.20833Z" fill="#F44336"/>
<path d="M24.8917 14.0644C24.9568 13.5523 25 13.0299 25 12.5C25 11.6064 24.9024 10.7363 24.7242 9.89583H12.5V15.1042H19.2565C18.7099 16.5248 17.7367 17.7268 16.4979 18.5619L20.7265 21.9003C22.9681 19.9327 24.5021 17.1774 24.8917 14.0644Z" fill="#2196F3"/>
<path d="M5.20833 12.5C5.20833 11.6214 5.37173 10.7829 5.6565 10.0029L1.44354 6.67693C0.525347 8.41668 0 10.396 0 12.5C0 14.5805 0.515683 16.5379 1.41481 18.2635L5.6331 14.9333C5.36296 14.1713 5.20833 13.3546 5.20833 12.5Z" fill="#FFC107"/>
<path d="M12.5 19.7917C9.32756 19.7917 6.63584 17.762 5.63309 14.9333L1.41479 18.2635C3.49921 22.264 7.67687 25 12.5 25C15.6539 25 18.5299 23.8283 20.7265 21.9003L16.4979 18.5619C15.3554 19.3322 13.9879 19.7917 12.5 19.7917Z" fill="#00B060"/>
<path opacity="0.1" d="M12.5 24.7396C8.82114 24.7396 5.51323 23.2217 3.1745 20.8035C5.46389 23.3727 8.78795 25 12.5 25C16.1777 25 19.4742 23.4048 21.7584 20.8758C19.4266 23.2548 16.1438 24.7396 12.5 24.7396Z" fill="black"/>
<path opacity="0.1" d="M12.5 14.8438V15.1042H19.2565L19.362 14.8438H12.5Z" fill="black"/>
<path d="M24.9942 12.6532C24.995 12.6019 25 12.5514 25 12.5C25 12.4854 24.9977 12.4714 24.9976 12.4568C24.9969 12.5224 24.9936 12.5873 24.9942 12.6532Z" fill="#E6E6E6"/>
<path opacity="0.2" d="M12.5 9.89583V10.1562H24.7766C24.7602 10.0703 24.7423 9.98115 24.7242 9.89583H12.5Z" fill="white"/>
<path d="M24.7242 9.89583H12.5V15.1042H19.2565C18.2058 17.835 15.6012 19.7917 12.5 19.7917C8.47295 19.7917 5.20833 16.527 5.20833 12.5C5.20833 8.47289 8.47295 5.20833 12.5 5.20833C13.9603 5.20833 15.3062 5.65694 16.4464 6.39655C16.6209 6.50997 16.8009 6.61647 16.9649 6.74381L20.7536 3.12926L20.6682 3.06352C18.476 1.16361 15.6287 0 12.5 0C5.59642 0 0 5.59642 0 12.5C0 19.4035 5.59642 25 12.5 25C18.8726 25 24.1203 20.2279 24.8917 14.0644C24.9568 13.5523 25 13.0299 25 12.5C25 11.6064 24.9024 10.7363 24.7242 9.89583Z" fill="url(#paint0_linear_230_2)"/>
<path opacity="0.1" d="M16.4463 6.13613C15.3061 5.39652 13.9602 4.94791 12.5 4.94791C8.47293 4.94791 5.20831 8.21247 5.20831 12.2396C5.20831 12.2835 5.2089 12.3178 5.20967 12.3617C5.27992 8.39532 8.51686 5.20833 12.5 5.20833C13.9602 5.20833 15.3061 5.65694 16.4463 6.39655C16.6209 6.50997 16.8009 6.61646 16.9649 6.74381L20.7536 3.12926L16.9649 6.48339C16.8009 6.35605 16.6209 6.24955 16.4463 6.13613Z" fill="black"/>
<path opacity="0.2" d="M12.5 0.260417C15.599 0.260417 18.4197 1.40457 20.6034 3.2725L20.7536 3.12926L20.639 3.02945C18.4468 1.12954 15.6287 0 12.5 0C5.59642 0 0 5.59642 0 12.5C0 12.5439 0.00610354 12.5863 0.00654854 12.6302C0.0771204 5.78734 5.64035 0.260417 12.5 0.260417Z" fill="white"/>
</g>
<defs>
<linearGradient id="paint0_linear_230_2" x1="0" y1="12.5" x2="25" y2="12.5" gradientUnits="userSpaceOnUse">
<stop stop-color="white" stop-opacity="0.2"/>
<stop offset="1" stop-color="white" stop-opacity="0"/>
</linearGradient>
<clipPath id="clip0_230_2">
<rect width="25" height="25" fill="white"/>
</clipPath>
</defs>
</svg>
