<svg width="40" height="44" viewBox="0 0 40 44" fill="none" xmlns="http://www.w3.org/2000/svg">
<g clip-path="url(#clip0_316_267)">
<path d="M17.1587 20.412L0.120117 40.3579C0.73986 42.467 2.70896 43.9468 4.90982 43.9468C5.86776 43.9468 6.70638 43.7073 7.42484 43.2283L28.3828 31.2575L17.1587 20.412Z" fill="#EA4335"/>
<path d="M37.2457 17.6052L28.2629 12.4549L18.6826 21.9159L28.383 31.2575L37.365 26.2275C38.9221 25.3888 40.0002 23.7125 40.0002 21.9159C39.88 20.1193 38.8028 18.4429 37.2457 17.6052Z" fill="#FBBC04"/>
<path d="M17.1175 23.4721L28.2635 12.4549L7.54501 0.718455C6.82655 0.239485 5.86776 0 4.90982 0C2.63514 0 0.599087 1.55708 0.120117 3.59313L17.1175 23.4721Z" fill="#34A853"/>
<path d="M0.119313 3.59314C0 3.95194 0 4.43177 0 4.90988V39.0421C0 39.5202 0 39.8798 0.120172 40.3588L18.6841 21.9159L0.119313 3.59314Z" fill="#4285F4"/>
</g>
<defs>
<clipPath id="clip0_316_267">
<rect width="40" height="43.9468" fill="white"/>
</clipPath>
</defs>
</svg>
