<svg width="25" height="25" viewBox="0 0 25 25" fill="none" xmlns="http://www.w3.org/2000/svg">
<g clip-path="url(#clip0_231_33)">
<path fill-rule="evenodd" clip-rule="evenodd" d="M19.9202 10.2129L14.3122 2.0582L12.5555 3.2457L18.1637 11.4002L19.9202 10.2129ZM17.818 11.6895L9.24458 6.67519L8.16411 8.49043L16.7379 13.5049L17.818 11.6895ZM16.5631 14.1006L6.95103 11.5385L6.39868 13.574L16.0114 16.1365L16.5631 14.1006ZM15.9092 16.8514L5.9979 15.9459L5.80278 18.0453L15.7143 18.95L15.9092 16.8514ZM22.3959 9.72441L20.6932 0L18.5983 0.360352L20.3008 10.0848L22.3959 9.72441ZM15.6698 21.6627L5.71587 21.6674L5.71509 19.5594L15.6686 19.5543L15.6698 21.6627Z" fill="#FF810F"/>
<path fill-rule="evenodd" clip-rule="evenodd" d="M17.3602 14.7283V23.3461H4.30471V14.7283H2.60413V25H19.0522V14.7283H17.3602Z" fill="#BEBCBC"/>
</g>
<defs>
<clipPath id="clip0_231_33">
<rect width="25" height="25" fill="white"/>
</clipPath>
</defs>
</svg>
