<svg width="40" height="40" viewBox="0 0 40 40" fill="none" xmlns="http://www.w3.org/2000/svg">
<g clip-path="url(#clip0_316_264)">
<path fill-rule="evenodd" clip-rule="evenodd" d="M19.9997 0C31.0439 0 39.9997 8.95605 39.9997 19.9997C39.9997 31.0443 31.0436 39.9997 19.9997 39.9997C8.95573 40 0 31.0443 0 19.9997C0 8.95605 8.95573 0 19.9997 0ZM25.4928 2.11426C32.2044 4.34505 37.2402 10.2513 38.2103 17.4466L37.5745 17.3786C37.4616 17.8652 37.3577 17.8776 37.3577 18.4635C37.3577 18.9805 38.0088 19.3265 38.0088 20.4176C38.0088 20.71 37.3223 21.2946 37.292 21.3965L36.2725 20.2005V21.7204L36.1175 21.7145L35.8428 18.9102L35.2734 19.0895L34.596 17.0033L32.3646 19.3324L32.3379 21.0378L31.6094 21.5264L30.8356 17.152L30.3727 17.4902L29.3245 16.0758L27.7578 16.1224L27.1576 15.4365L26.5433 15.6055L25.335 14.2207L25.1016 14.3796L25.8503 16.293H26.7191V15.8587H27.153C27.4661 16.724 27.8044 16.2116 27.8044 16.7275C27.8044 18.5332 25.5742 19.8607 24.1133 20.2005C24.1914 20.527 24.1611 20.8525 24.5472 20.8525C25.3652 20.8525 24.9587 20.7093 25.8503 20.6354C25.8089 22.4801 23.7344 24.6833 22.8486 26.0566L23.2451 28.8854C23.3496 29.4997 21.9694 30.1497 21.5 30.8415L21.7253 31.9251L21.0895 32.182C20.9782 33.2952 19.8975 34.5303 18.6852 34.5303H17.3831C17.3831 33.0059 16.2972 30.8304 16.2972 29.7533C16.2972 28.8385 16.7311 28.7155 16.7311 27.5824C16.7311 26.5355 15.6462 25.0342 15.6462 24.7601V23.0231H14.7773C14.6484 22.5391 14.7272 22.3721 14.1263 22.3721H13.9092C12.9606 22.3721 13.1208 22.806 12.1722 22.806H11.3034C10.5202 22.806 9.13249 20.2926 9.13249 19.9834V17.3783C9.13249 16.2539 10.1615 15.0299 10.8695 14.5553V13.4704L11.8467 12.4769L12.3893 12.3844C13.5544 12.3844 13.416 11.7334 14.1263 11.7334H16.0807V13.2533L18.2292 14.1706L18.4316 13.2435C19.4053 13.4717 19.6585 13.9049 20.8581 13.9049H21.292C22.1159 13.9049 22.1602 12.8118 22.1602 11.9512L20.4209 12.123L19.6644 10.4746L18.9121 10.6748C19.0472 11.2646 19.1211 11.0195 19.1211 11.5169C19.1211 11.8099 18.8799 11.8424 18.6865 11.9512L17.9342 10.042L16.3167 8.88672L16.1019 9.09766L17.4792 10.5469C17.2962 11.0667 17.2747 12.568 16.5153 11.5166L17.2256 11.1748L15.4554 9.31966L14.3949 9.73438L13.348 10.737C13.2386 11.5446 13.0186 11.9508 12.1735 11.9508C11.611 11.9508 11.9505 11.8053 11.0876 11.7337V9.56283H13.0413L12.4082 8.11686L12.1735 8.26009V7.82552L15.3464 6.36263C15.2865 5.90723 15.2135 6.15137 15.2135 5.65462C15.2135 5.625 15.4268 5.22428 15.4307 5.21973L16.2513 5.72917L16.055 4.7946L14.7891 5.05501L14.554 3.91895C15.5579 3.3903 17.7669 1.52962 18.4694 1.52962H19.1211C19.807 1.52962 21.6442 2.20638 21.943 2.61458L20.2008 2.43815L21.4935 3.50293L21.6175 3.04883L22.5824 2.78451L22.5941 2.18066H23.029V2.83171L25.4928 2.11426ZM38.0739 23.3838C38.0238 23.6579 37.9684 23.9294 37.9072 24.1989L37.8073 23.4984L38.0739 23.3838ZM37.4486 25.8457C37.4007 25.9909 37.3519 26.1367 37.3005 26.2806H37.141V25.8457H37.4486ZM3.82747 30.332C2.64779 28.5439 1.7666 26.5426 1.25065 24.3991L4.77311 26.0977L4.79102 27.1488C4.79102 27.5348 4.13184 28.3564 3.92285 28.6686L3.82747 30.332Z" fill="black"/>
</g>
<defs>
<clipPath id="clip0_316_264">
<rect width="40" height="40" fill="white"/>
</clipPath>
</defs>
</svg>
